HIERARCHY
ROOT hip
{
  OFFSET 0 0 0
  CHANNELS 6 Xposition Yposition Zposition Zrotation Yrotation Xrotation
  JOINT abdomen
  {
    OFFSET 0 20.6881 -0.73152
    CHANNELS 3 Zrotation Xrotation Yrotation
    JOINT chest
    {
      OFFSET 0 11.7043 -0.48768
      CHANNELS 3 Zrotation Xrotation Yrotation
      JOINT neck
      {
        OFFSET 0 22.1894 -2.19456
        CHANNELS 3 Zrotation Xrotation Yrotation
        JOINT head
        {
          OFFSET -0.24384 7.07133 1.2192
          CHANNELS 3 Zrotation Xrotation Yrotation
          JOINT leftEye
          {
            OFFSET 4.14528 8.04674 8.04672
            CHANNELS 3 Zrotation Xrotation Yrotation
            End Site
            {
              OFFSET 1 0 0
            }
          }
          JOINT rightEye
          {
            OFFSET -3.6576 8.04674 8.04672
            CHANNELS 3 Zrotation Xrotation Yrotation
            End Site
            {
              OFFSET 1 0 0
            }
          }
        }
      }
      JOINT rCollar
      {
        OFFSET -2.68224 19.2634 -4.8768
        CHANNELS 3 Zrotation Xrotation Yrotation
        JOINT rShldr
        {
          OFFSET -8.77824 -1.95073 1.46304
          CHANNELS 3 Zrotation Xrotation Yrotation
          JOINT rForeArm
          {
            OFFSET -28.1742 -1.7115 0.48768
            CHANNELS 3 Zrotation Xrotation Yrotation
            JOINT rHand
            {
              OFFSET -22.5879 0.773209 7.07136
              CHANNELS 3 Zrotation Xrotation Yrotation
              JOINT rThumb1
              {
                OFFSET -1.2192 -0.487915 3.41376
                CHANNELS 3 Zrotation Xrotation Yrotation
                JOINT rThumb2
                {
                  OFFSET -3.37035 -0.52449 3.41376
                  CHANNELS 3 Zrotation Xrotation Yrotation
                  End Site
                  {
                    OFFSET -1.78271 -1.18214 1.43049
                  }
                }
              }
              JOINT rIndex1
              {
                OFFSET -7.75947 0.938293 5.60832
                CHANNELS 3 Zrotation Xrotation Yrotation
                JOINT rIndex2
                {
                  OFFSET -2.54057 -0.884171 1.56538
                  CHANNELS 3 Zrotation Xrotation Yrotation
                  End Site
                  {
                    OFFSET -1.62519 -0.234802 1.16502
                  }
                }
              }
              JOINT rMid1
              {
                OFFSET -8.24714 1.18213 3.41376
                CHANNELS 3 Zrotation Xrotation Yrotation
                JOINT rMid2
                {
                  OFFSET -3.10165 -0.590103 1.0647
                  CHANNELS 3 Zrotation Xrotation Yrotation
                  End Site
                  {
                    OFFSET -2.48547 -0.328903 0.83742
                  }
                }
              }
              JOINT rRing1
              {
                OFFSET -8.82822 0.546677 1.51678
                CHANNELS 3 Zrotation Xrotation Yrotation
                JOINT rRing2
                {
                  OFFSET -2.60934 -0.819778 -0.0198488
                  CHANNELS 3 Zrotation Xrotation Yrotation
                  End Site
                  {
                    OFFSET -2.33842 -0.294052 0.168128
                  }
                }
              }
              JOINT rPinky1
              {
                OFFSET -8.27202 -0.0477905 -0.4584
                CHANNELS 3 Zrotation Xrotation Yrotation
                JOINT rPinky2
                {
                  OFFSET -1.82734 -0.647385 -0.700984
                  CHANNELS 3 Zrotation Xrotation Yrotation
                  End Site
                  {
                    OFFSET -1.69225 -0.51767 -0.607171
                  }
                }
              }
            }
          }
        }
      }
      JOINT lCollar
      {
        OFFSET 2.68224 19.2634 -4.8768
        CHANNELS 3 Zrotation Xrotation Yrotation
        JOINT lShldr
        {
          OFFSET 8.77824 -1.95073 1.46304
          CHANNELS 3 Zrotation Xrotation Yrotation
          JOINT lForeArm
          {
            OFFSET 28.1742 -1.7115 0.48768
            CHANNELS 3 Zrotation Xrotation Yrotation
            JOINT lHand
            {
              OFFSET 22.5879 0.773209 7.07136
              CHANNELS 3 Zrotation Xrotation Yrotation
              JOINT lThumb1
              {
                OFFSET 1.2192 -0.487915 3.41376
                CHANNELS 3 Zrotation Xrotation Yrotation
                JOINT lThumb2
                {
                  OFFSET 3.37035 -0.52449 3.41376
                  CHANNELS 3 Zrotation Xrotation Yrotation
                  End Site
                  {
                    OFFSET 1.78271 -1.18214 1.43049
                  }
                }
              }
              JOINT lIndex1
              {
                OFFSET 7.75947 0.938293 5.60832
                CHANNELS 3 Zrotation Xrotation Yrotation
                JOINT lIndex2
                {
                  OFFSET 2.54057 -0.884171 1.56538
                  CHANNELS 3 Zrotation Xrotation Yrotation
                  End Site
                  {
                    OFFSET 1.62519 -0.234802 1.16502
                  }
                }
              }
              JOINT lMid1
              {
                OFFSET 8.24714 1.18213 3.41376
                CHANNELS 3 Zrotation Xrotation Yrotation
                JOINT lMid2
                {
                  OFFSET 3.10165 -0.590103 1.0647
                  CHANNELS 3 Zrotation Xrotation Yrotation
                  End Site
                  {
                    OFFSET 2.48547 -0.328903 0.83742
                  }
                }
              }
              JOINT lRing1
              {
                OFFSET 8.82822 0.546677 1.51678
                CHANNELS 3 Zrotation Xrotation Yrotation
                JOINT lRing2
                {
                  OFFSET 2.60934 -0.819778 -0.0198488
                  CHANNELS 3 Zrotation Xrotation Yrotation
                  End Site
                  {
                    OFFSET 2.33842 -0.294052 0.168128
                  }
                }
              }
              JOINT lPinky1
              {
                OFFSET 8.27202 -0.0477905 -0.4584
                CHANNELS 3 Zrotation Xrotation Yrotation
                JOINT lPinky2
                {
                  OFFSET 1.82734 -0.647385 -0.700984
                  CHANNELS 3 Zrotation Xrotation Yrotation
                  End Site
                  {
                    OFFSET 1.69225 -0.51767 -0.607171
                  }
                }
              }
            }
          }
        }
      }
    }
  }
  JOINT rButtock
  {
    OFFSET -8.77824 4.35084 1.2192
    CHANNELS 3 Zrotation Xrotation Yrotation
    JOINT rThigh
    {
      OFFSET 0 -1.70687 -2.19456
      CHANNELS 3 Zrotation Xrotation Yrotation
      JOINT rShin
      {
        OFFSET 0 -36.8199 0.73152
        CHANNELS 3 Zrotation Xrotation Yrotation
        JOINT rFoot
        {
          OFFSET 0.73152 -45.1104 -5.12064
          CHANNELS 3 Zrotation Xrotation Yrotation
          End Site
          {
            OFFSET -1.1221 -3.69964 12.103
          }
        }
      }
    }
  }
  JOINT lButtock
  {
    OFFSET 8.77824 4.35084 1.2192
    CHANNELS 3 Zrotation Xrotation Yrotation
    JOINT lThigh
    {
      OFFSET 0 -1.70687 -2.19456
      CHANNELS 3 Zrotation Xrotation Yrotation
      JOINT lShin
      {
        OFFSET 0 -36.8199 0.73152
        CHANNELS 3 Zrotation Xrotation Yrotation
        JOINT lFoot
        {
          OFFSET -0.73152 -45.1104 -5.12064
          CHANNELS 3 Zrotation Xrotation Yrotation
          End Site
          {
            OFFSET 1.1221 -3.69964 12.103
          }
        }
      }
    }
  }
}
MOTION
Frames:	7
Frame Time:	0.00833333
-3.11665 82.9965 44.8264 -7.2864 -6.3575 11.0469 3.18525 -4.0101 -2.79679 -2.53456 -16.3235 -1.39117 -7.36458 5.05198 -12.7441 9.86756 -12.1792 -22.8417 -0.0 0.0 0.0 -0.0 0.0 0.0 -1.90842e-13 1.13484e-13 2.06137e-13 28.2256 -24.6511 49.8946 -26.8801 -44.1281 91.9734 -0.242687 13.2871 1.90151 1.01851e-09 -6.16656e-11 -1.02936e-09 1.74576e-09 -1.03645e-10 -1.78695e-09 1.01852e-09 -6.16654e-11 -1.02939e-09 7.73091 5.47488 0.417314 1.01851e-09 -6.16657e-11 -1.02936e-09 2.90554 0.965183 0.102902 1.01852e-09 -6.16661e-11 -1.02935e-09 10.2786 0.731801 0.0259123 1.01851e-09 -6.16645e-11 -1.02935e-09 2.22167 -0.733487 -0.20892 -1.90943e-13 1.13478e-13 2.05927e-13 -16.6206 59.011 -47.2187 28.4331 -35.4979 -76.1725 2.17646 -38.0178 6.3089 -2.31718e-10 -1.77678e-09 -1.35844e-09 -3.60908e-10 -3.1032e-09 -2.34382e-09 -2.31726e-10 -1.77678e-09 -1.35843e-09 -7.73091 5.47488 -0.417314 -2.31719e-10 -1.77678e-09 -1.35844e-09 -2.90554 0.965183 -0.102902 -2.31721e-10 -1.77678e-09 -1.35844e-09 -10.2786 0.731801 -0.0259123 -2.31711e-10 -1.77678e-09 -1.35845e-09 -2.22167 -0.733487 0.20892 -2.03217e-16 0.0 -3.88251e-19 0.463586 -9.33094 26.1525 0.029839 -0.809142 0.278558 -4.28231 -3.609 -23.693 2.03217e-16 0.0 3.88251e-19 -1.69221 -10.4012 -40.0224 0.011389 12.9801 -0.0589953 14.1277 -14.0865 54.0836
-3.10826 82.9943 44.7745 -7.3919 -6.3846 11.3283 3.33176 -3.82598 -1.94567 -2.99146 -16.7013 -1.21002 -7.76391 6.03604 -13.549 10.3253 -13.3142 -24.3273 -0.0 0.0 0.0 -0.0 0.0 0.0 -2.08105e-13 1.52669e-13 1.1778e-13 33.1106 -29.2121 53.5674 -27.162 -43.5659 90.5881 -0.335914 16.2662 2.35019 1.05499e-09 1.99582e-12 -9.49513e-10 1.80725e-09 6.94633e-12 -1.64984e-09 1.055e-09 1.99858e-12 -9.49542e-10 7.73091 5.47488 0.417314 1.05499e-09 1.99451e-12 -9.49513e-10 2.90554 0.965183 0.102902 1.055e-09 1.99411e-12 -9.49508e-10 10.2786 0.731801 0.0259123 1.05498e-09 1.9962e-12 -9.49504e-10 2.22167 -0.733487 -0.20892 -2.08164e-13 1.52664e-13 1.17581e-13 -13.7069 58.7636 -50.3328 28.4334 -35.6778 -76.4709 2.2039 -38.2224 6.35473 -1.89539e-10 -1.59531e-09 -1.26641e-09 -2.91016e-10 -2.78414e-09 -2.18251e-09 -1.89545e-10 -1.59531e-09 -1.2664e-09 -7.73091 5.47488 -0.417314 -1.8954e-10 -1.59532e-09 -1.2664e-09 -2.90554 0.965183 -0.102902 -1.89541e-10 -1.59532e-09 -1.2664e-09 -10.2786 0.731801 -0.0259123 -1.89531e-10 -1.59531e-09 -1.26641e-09 -2.22167 -0.733487 0.20892 -2.03217e-16 0.0 -3.88251e-19 0.503756 -9.45463 26.4198 0.0299547 -0.888484 0.276461 -4.28158 -3.56373 -23.9606 2.03217e-16 0.0 3.88251e-19 -1.80799 -10.4052 -40.7398 0.0146126 12.9611 -0.0313948 14.7898 -14.3884 54.8236
-3.10414 82.9899 44.764 -7.4454 -6.5481 11.5363 3.36775 -3.88397 -1.24438 -3.20917 -16.4935 -1.02932 -8.17339 6.81657 -14.2173 10.7556 -14.2857 -25.5404 -0.0 0.0 0.0 -0.0 0.0 0.0 -1.95016e-13 1.31447e-13 4.71997e-15 37.392 -31.6229 56.4105 -27.3729 -42.3429 89.3668 -0.505478 20.0084 2.92572 8.57295e-10 2.06185e-11 -7.63637e-10 1.46743e-09 3.98306e-11 -1.32681e-09 8.573e-10 2.06214e-11 -7.63662e-10 7.73091 5.47488 0.417314 8.57293e-10 2.06166e-11 -7.6364e-10 2.90554 0.965183 0.102902 8.57303e-10 2.06164e-11 -7.63635e-10 10.2786 0.731801 0.0259123 8.57287e-10 2.06184e-11 -7.63631e-10 2.22167 -0.733487 -0.20892 -1.95072e-13 1.31446e-13 4.51225e-15 -11.511 58.0343 -53.117 28.4317 -35.6069 -76.3622 2.28823 -38.8217 6.49197 -2.93568e-10 -1.20802e-09 -1.08647e-09 -4.75306e-10 -2.11708e-09 -1.87547e-09 -2.93573e-10 -1.20802e-09 -1.08647e-09 -7.73091 5.47488 -0.417314 -2.93569e-10 -1.20802e-09 -1.08646e-09 -2.90554 0.965183 -0.102902 -2.93571e-10 -1.20802e-09 -1.08647e-09 -10.2786 0.731801 -0.0259123 -2.9356e-10 -1.20802e-09 -1.08647e-09 -2.22167 -0.733487 0.20892 -2.03217e-16 0.0 -3.88251e-19 0.548701 -9.51848 26.6976 0.0300397 -0.975157 0.275628 -4.26412 -3.52816 -24.1226 2.03217e-16 0.0 3.88251e-19 -1.94721 -10.3053 -41.5383 0.0196798 12.975 0.0094201 15.8187 -14.8944 55.7742
-3.10892 82.9831 44.7771 -7.5071 -6.747 11.6392 3.33173 -4.10762 -0.571021 -3.28783 -15.9035 -0.832179 -8.56545 7.50526 -14.7817 11.148 -15.1866 -26.5575 -0.0 0.0 0.0 -0.0 0.0 0.0 -1.61593e-13 7.37473e-14 -1.37929e-13 40.8613 -32.6185 58.1066 -27.5029 -40.5929 88.1829 -0.741635 24.0349 3.58052 4.9415e-10 1.41075e-11 -4.78833e-10 8.43767e-10 2.89373e-11 -8.31137e-10 4.94157e-10 1.41091e-11 -4.78852e-10 7.73091 5.47488 0.417314 4.9415e-10 1.41052e-11 -4.78839e-10 2.90554 0.965183 0.102902 4.94159e-10 1.41054e-11 -4.78835e-10 10.2786 0.731801 0.0259123 4.94146e-10 1.41069e-11 -4.78832e-10 2.22167 -0.733487 -0.20892 -1.61666e-13 7.37508e-14 -1.38155e-13 -9.85694 57.0133 -55.6615 28.4302 -35.3417 -75.9202 2.4138 -39.6678 6.6911 -4.91411e-10 -6.41731e-10 -8.24399e-10 -8.2343e-10 -1.14521e-09 -1.4305e-09 -4.91412e-10 -6.41732e-10 -8.24394e-10 -7.73091 5.47488 -0.417314 -4.91411e-10 -6.41732e-10 -8.24393e-10 -2.90554 0.965183 -0.102902 -4.91415e-10 -6.41732e-10 -8.24397e-10 -10.2786 0.731801 -0.0259123 -4.91402e-10 -6.4173e-10 -8.24403e-10 -2.22167 -0.733487 0.20892 -2.03217e-16 0.0 -3.88251e-19 0.597734 -9.546 26.9905 0.0301963 -1.06443 0.276531 -4.22857 -3.4905 -24.1887 2.03217e-16 0.0 3.88251e-19 -2.10831 -10.1174 -42.4219 0.0260496 13.0112 0.0618417 17.1896 -15.5413 56.9493
-3.1208 82.9759 44.8071 -7.6011 -6.9438 11.6437 3.21698 -4.39913 0.052232 -3.28953 -15.2223 -0.640107 -8.8891 8.10381 -15.2268 11.4314 -15.7693 -27.3762 -0.0 0.0 0.0 -0.0 0.0 0.0 -1.12017e-13 1.03984e-15 -2.72379e-13 42.9715 -32.6698 58.6448 -27.7601 -39.0518 85.6918 -0.997453 27.3189 4.15558 9.98688e-11 2.62912e-11 -1.43074e-10 1.67359e-10 4.98501e-11 -2.47303e-10 9.9876e-11 2.62912e-11 -1.4309e-10 7.73091 5.47488 0.417314 9.98704e-11 2.6289e-11 -1.43083e-10 2.90554 0.965183 0.102902 9.9879e-11 2.62893e-11 -1.43081e-10 10.2786 0.731801 0.0259123 9.98684e-11 2.62903e-11 -1.43079e-10 2.22167 -0.733487 -0.20892 -1.1211e-13 1.04745e-15 -2.72623e-13 -8.61732 56.009 -57.862 28.4238 -34.9758 -75.3128 2.55828 -40.5867 6.91429 -6.51247e-10 1.75878e-11 -4.61818e-10 -1.10945e-09 -9.30511e-12 -8.11566e-10 -6.51246e-10 1.75883e-11 -4.61813e-10 -7.73091 5.47488 -0.417314 -6.51247e-10 1.75888e-11 -4.61815e-10 -2.90554 0.965183 -0.102902 -6.51254e-10 1.75878e-11 -4.61819e-10 -10.2786 0.731801 -0.0259123 -6.51239e-10 1.75892e-11 -4.61825e-10 -2.22167 -0.733487 0.20892 -2.03217e-16 0.0 -3.88251e-19 0.645804 -9.51332 27.2438 0.0306225 -1.14035 0.280053 -4.17907 -3.45515 -24.1401 2.03217e-16 0.0 3.88251e-19 -2.27054 -9.83796 -43.2537 0.0328342 13.0623 0.119307 18.6894 -16.2059 58.175
-3.14031 82.9623 44.8594 -7.7338 -7.2569 11.5656 3.01167 -4.66071 0.602875 -3.2715 -14.7411 -0.473091 -9.09289 8.61395 -15.5373 11.5447 -15.7903 -27.9874 -0.0 0.0 0.0 -0.0 0.0 0.0 -5.04707e-14 -6.52056e-14 -3.60844e-13 43.348 -32.1187 58.1987 -28.3253 -38.079 80.5436 -1.14182 28.84 4.4386 -1.9124e-10 1.00999e-10 1.95661e-10 -3.30685e-10 1.78152e-10 3.40226e-10 -1.91233e-10 1.00997e-10 1.95649e-10 7.73091 5.47488 0.417314 -1.91238e-10 1.00997e-10 1.95652e-10 2.90554 0.965183 0.102902 -1.9123e-10 1.00997e-10 1.95653e-10 10.2786 0.731801 0.0259123 -1.91239e-10 1.00997e-10 1.95655e-10 2.22167 -0.733487 -0.20892 -5.0565e-14 -6.51969e-14 -3.61092e-13 -7.58072 55.3295 -59.6922 28.4137 -34.6083 -74.6986 2.6933 -41.4053 7.11876 -6.4126e-10 6.83978e-10 1.96463e-11 -1.10743e-09 1.14983e-09 1.73857e-11 -6.41257e-10 6.8398e-10 1.96526e-11 -7.73091 5.47488 -0.417314 -6.41258e-10 6.83979e-10 1.96463e-11 -2.90554 0.965183 -0.102902 -6.41268e-10 6.83979e-10 1.96431e-11 -10.2786 0.731801 -0.0259123 -6.41251e-10 6.8398e-10 1.96367e-11 -2.22167 -0.733487 0.20892 -2.03217e-16 0.0 -3.88251e-19 0.687639 -9.39686 27.4026 0.0315149 -1.18697 0.287079 -4.11981 -3.42647 -23.9577 2.03217e-16 0.0 3.88251e-19 -2.41445 -9.46538 -43.8985 0.0391859 13.1208 0.175243 20.086 -16.7964 59.2676
-3.18065 82.9382 44.9493 -7.9229 -7.6601 11.4174 2.67833 -4.89591 1.09486 -3.21832 -14.5665 -0.328336 -9.15444 9.04737 -15.6754 11.4479 -15.0152 -28.3472 -0.0 0.0 0.0 -0.0 0.0 0.0 4.81237e-14 -1.34902e-13 -3.89874e-13 40.7936 -30.4114 56.0995 -29.2951 -36.1726 70.8916 -1.12252 28.3002 4.34562 -3.50573e-10 2.48742e-10 5.79187e-10 -5.99853e-10 4.31424e-10 1.003e-09 -3.50566e-10 2.4874e-10 5.79175e-10 7.73091 5.47488 0.417314 -3.50572e-10 2.48742e-10 5.79181e-10 2.90554 0.965183 0.102902 -3.50564e-10 2.48739e-10 5.7918e-10 10.2786 0.731801 0.0259123 -3.50571e-10 2.4874e-10 5.79184e-10 2.22167 -0.733487 -0.20892 4.80586e-14 -1.34898e-13 -3.90101e-13 -6.74117 55.1456 -61.1827 28.4008 -34.2034 -74.0023 2.80264 -42.0443 7.28209 -3.25434e-10 1.53546e-09 8.3694e-10 -5.9077e-10 2.65029e-09 1.43412e-09 -3.25431e-10 1.53546e-09 8.36947e-10 -7.73091 5.47488 -0.417314 -3.25431e-10 1.53546e-09 8.36937e-10 -2.90554 0.965183 -0.102902 -3.25441e-10 1.53546e-09 8.36936e-10 -10.2786 0.731801 -0.0259123 -3.25424e-10 1.53547e-09 8.36929e-10 -2.22167 -0.733487 0.20892 -2.03217e-16 0.0 -3.88251e-19 0.721936 -9.17111 27.4587 0.0332332 -1.19739 0.300155 -4.04258 -3.40553 -23.5738 2.03217e-16 0.0 3.88251e-19 -2.56067 -8.94051 -44.3606 0.0456231 13.1999 0.236047 21.4621 -17.3785 60.2841
